inDegrees=no
num_controls=7
num_derivatives=13
num_iterations=91
num_multipliers=7
num_parameters=0
num_slacks=7
num_states=26
objective=0.454592
objective_accelerations=0.042959
objective_balance=0.000762
objective_effort=0.035618
objective_height=0.369122
objective_ligament=0.006132
solver_duration=1029.041891
status=Solve_Succeeded
success=true
DataType=double
version=3
OpenSimVersion=4.5
endheader
time	/jointset/ground_pelvis/pelvis_tilt/value	/jointset/ground_pelvis/pelvis_tx/value	/jointset/ground_pelvis/pelvis_ty/value	/jointset/hip_r/hip_flexion_r/value	/jointset/hip_r/hip_adduction_r/value	/jointset/hip_r/hip_rotation_r/value	/jointset/back/lumbar_extension/value	/jointset/patellofemoral_r/patellar_flexion_r/value	/jointset/knee_r/knee_flexion_r/value	/jointset/knee_r/knee_adduction_r/value	/jointset/knee_r/knee_rotation_r/value	/jointset/ankle_r/ankle_angle_r/value	/jointset/subtalar_r/subtalar_angle_r/value	/jointset/ground_pelvis/pelvis_tilt/speed	/jointset/ground_pelvis/pelvis_tx/speed	/jointset/ground_pelvis/pelvis_ty/speed	/jointset/hip_r/hip_flexion_r/speed	/jointset/hip_r/hip_adduction_r/speed	/jointset/hip_r/hip_rotation_r/speed	/jointset/back/lumbar_extension/speed	/jointset/patellofemoral_r/patellar_flexion_r/speed	/jointset/knee_r/knee_flexion_r/speed	/jointset/knee_r/knee_adduction_r/speed	/jointset/knee_r/knee_rotation_r/speed	/jointset/ankle_r/ankle_angle_r/speed	/jointset/subtalar_r/subtalar_angle_r/speed	/forceset/tau_hip_flexion_r	/forceset/tau_hip_adduction_r	/forceset/tau_hip_rotation_r	/forceset/tau_knee_flexion_r	/forceset/tau_ankle_angle_r	/forceset/tau_subtalar_angle_r	/forceset/tau_lumbar_extension	lambda_cid13_p0	lambda_cid14_p0	lambda_cid14_p1	lambda_cid14_p2	lambda_cid14_p3	lambda_cid14_p4	lambda_cid14_p5	/jointset/ground_pelvis/pelvis_tilt/accel	/jointset/ground_pelvis/pelvis_tx/accel	/jointset/ground_pelvis/pelvis_ty/accel	/jointset/hip_r/hip_flexion_r/accel	/jointset/hip_r/hip_adduction_r/accel	/jointset/hip_r/hip_rotation_r/accel	/jointset/back/lumbar_extension/accel	/jointset/patellofemoral_r/patellar_flexion_r/accel	/jointset/knee_r/knee_flexion_r/accel	/jointset/knee_r/knee_adduction_r/accel	/jointset/knee_r/knee_rotation_r/accel	/jointset/ankle_r/ankle_angle_r/accel	/jointset/subtalar_r/subtalar_angle_r/accel	gamma_cid13_p0	gamma_cid14_p0	gamma_cid14_p1	gamma_cid14_p2	gamma_cid14_p3	gamma_cid14_p4	gamma_cid14_p5
0.5	-0.1212844605452143	0.03626894321689165	0.8170218976567012	0.836011763687082	-0.2510648778215703	-0.05817350569260812	-0.6431378821143854	0.9288599104818952	0.9288599104820539	0.06278531942119563	0.1727700261763511	0.2890727210681494	0.09219036192819127	-0.307879567019088	-0.1881538312420717	-0.4505394554047065	1.708669994295137	-0.03472553978045704	0.490271150999081	-0.7396773869292741	1.849833436871331	1.849833436871353	-0.09504336442865149	-0.01183424426983995	0.5269613279043102	0.1180148229907126	-0.1887076206447601	0.001787329005194718	0.03491464201697321	-0.2887292635275968	-0.006179799944144054	-0.01164906687030591	0.2361498341177865	-9.289252932649491	-45.32107959422319	-11.36817708749073	0.3765857978128954	-3.249001361798312	-647.4302311356637	60.7383761830671	0.2135958491030012	0.5485809680484637	-0.3210133535510212	-1.283496095926138	0.1341825436681578	-0.2067639204642618	1.865644690190706	-1.504131755803826	-1.50413175580382	0.5895429605284409	0.08304297651732188	-0.510609598341395	0.1154973910080306	-7.736550550012201e-08	-7.27967490660648e-09	1.134454184316491e-06	-1.985571535730585e-07	-1.173854424977175e-07	-1.22869502638461e-07	7.604619382744691e-07
0.51	-0.1243519914541054	0.03441494769805024	0.8125014616234245	0.8530318186906958	-0.251405962390163	-0.0532822283065065	-0.6504408895281162	0.947280418334195	0.9472804183341855	0.06186490533877693	0.1726573055354112	0.2943157612689677	0.09337517014288006	-0.3055842107887179	-0.1826347123325837	-0.4534487948423471	1.695126247412856	-0.03349952749189686	0.4879786011061455	-0.7208544661461831	1.834028093411742	1.834028093411735	-0.0890053670342701	-0.01070727777269117	0.5215675523472399	0.1189096866130255	-0.1944103418158222	0.002702284891368132	0.03561248164101571	-0.2934677174377098	-0.007240047652088754	-0.01141402959408879	0.2415383628972732	-8.325569759422324	-45.93355445794141	-11.51123312806639	0.5568995723828057	-3.137963529521885	-651.7667761545033	60.98883647242818	0.2438670326112308	0.5551346366026236	-0.2610751505553643	-1.422027140301587	0.1156449246342042	-0.241478415436481	1.901060223032504	-1.654726546068065	-1.654726546072475	0.616210145588177	0.1279207889023199	-0.5656706113399412	0.07108911207065477	-7.256389438342738e-08	4.701606803714659e-09	1.232969922916622e-06	-1.242824250111992e-07	-1.351135609650786e-07	-1.151048225375558e-07	8.285123063212453e-07
0.52	-0.1273952964961935	0.03261645482514328	0.8079548960134368	0.8699099935942869	-0.251735019965232	-0.04841407199769682	-0.6575535788438852	0.9655356745708462	0.9655356745707618	0.06100592763359181	0.1725559340199651	0.2995024818988278	0.09456784864663664	-0.3030343936539933	-0.1770533020551844	-0.4557653707474388	1.680293974293664	-0.03232014107593439	0.4856469355440724	-0.701613767336468	1.816783113750874	1.816783113750838	-0.08275608897206681	-0.009564419171998483	0.515697413712162	0.1195888808044415	-0.2001130629868842	0.003617240777449599	0.03631032126513591	-0.2982061713478165	-0.008300295360057403	-0.01117899231801779	0.2469268916767719	-7.417596834431023	-46.54576704650213	-11.6481499944653	0.7292747102833462	-3.052946742736957	-656.1054903351263	61.27771104711606	0.2644880299742643	0.5610392416306331	-0.2024606470412746	-1.541201343308323	0.1248573691486733	-0.2145870542916429	1.949200295515697	-1.792058996059728	-1.792058996059753	0.6317990940928675	0.08622139722599784	-0.6058822139430143	0.07236350482863439	-6.642290332197302e-08	1.107483752711835e-08	1.21233824181268e-06	-8.439411724314831e-08	-1.379236955877459e-07	-1.014475478355719e-07	8.160829282178387e-07
0.53	-0.1304118043254534	0.03087402900304995	0.8033881435812434	0.8866335308122416	-0.2520523085626623	-0.04357025651834368	-0.6644719524877315	0.9836114772917157	0.9836114772915041	0.06020937438712633	0.1724662808617514	0.3046282862202264	0.09576660440440234	-0.3002182338091534	-0.1714266145742434	-0.4574839886260609	1.664202808625859	-0.03112864533892297	0.4830299704690681	-0.6820127966044081	1.798152228167862	1.79815222816783	-0.07662164964422689	-0.008344819553467654	0.5093986231528809	0.1201567336587103	-0.2057084804896022	0.004501006514235506	0.03695855622386679	-0.3029377727810231	-0.00947229963918577	-0.01098252711418308	0.2521718670607344	-6.566828559650073	-47.1980547923905	-11.80685156687207	0.9028568246936618	-2.887435586634115	-660.4252201566225	61.5405103136965	0.2975226351221547	0.564242789505921	-0.1414121533317115	-1.674671053615813	0.117698343688644	-0.2982873041704418	1.972770186327223	-1.932371037505802	-1.932371037505218	0.594366085591168	0.143061657958754	-0.6516352233055648	0.04834674957676516	-5.826144617969287e-08	1.928148157953977e-08	1.19156471815198e-06	-2.966016371753951e-08	-1.419641246298284e-07	-8.686383974660958e-08	8.061382791872841e-07
